The song - The Chosen One - is inspired by Muhammad, peace and blessings be upon him. Maher Zain and Awakening Records felt they had to respond after the recent attacks on prophet Muhammad through cartoons and facebook. The result is this music video. It's a small token in portraying the true character of our beloved Prophet Muhammad.


General
Complete name                    : Maher Zain - The Chosen One - 2010 - 1080p HD.mp4
Format                           : MPEG-4
Format profile                   : Base Media / Version 2
Codec ID                         : mp42
File size                        : 124 MiB
Duration                         : 4mn 55s
Overall bit rate                 : 3 535 Kbps


Video
ID                               : 1
Format                           : AVC
Format/Info                      : Advanced Video Codec
Format profile                   : High@L4.0
Format settings, CABAC           : No
Format settings, ReFrames        : 1 frame
Codec ID                         : avc1
Codec ID/Info                    : Advanced Video Coding
Duration                         : 4mn 55s
Bit rate mode                    : Variable
Bit rate                         : 3 401 Kbps
Maximum bit rate                 : 21.1 Mbps
Width                            : 1 920 pixels
Height                           : 1 080 pixels
Display aspect ratio             : 16:9
Frame rate mode                  : Variable
Frame rate                       : 23.976 fps
Minimum frame rate               : 17.241 fps
Maximum frame rate               : 24.390 fps
Original frame rate              : 24.000 fps
Resolution                       : 24 bits
Colorimetry                      : 4:2:0
Scan type                        : Progressive
Bits/(Pixel*Frame)               : 0.068
Stream size                      : 120 MiB (96%)


Audio
ID                               : 2
Format                           : AAC
Format/Info                      : Advanced Audio Codec
Format version                   : Version 4
Format profile                   : LC
Format settings, SBR             : No
Codec ID                         : 40
Duration                         : 4mn 55s
Bit rate mode                    : Variable
Bit rate                         : 128 Kbps
Maximum bit rate                 : 215 Kbps
Channel(s)                       : 2 channels
Channel positions                : L R
Sampling rate                    : 44.1 KHz
Resolution                       : 16 bits
Stream size                      : 4.50 MiB (4%)


